<mxfile host="Electron" modified="2024-01-22T20:42:01.857Z" agent="Mozilla/5.0 (Windows NT 10.0; Win64; x64) AppleWebKit/537.36 (KHTML, like Gecko) draw.io/22.1.21 Chrome/120.0.6099.109 Electron/28.1.0 Safari/537.36" etag="KwlDzFavjUE-oYmvU_El" version="22.1.21" type="device" pages="2">
  <diagram name="Infra" id="fZ-07UN7kWc-W8yK62nl">
    <mxGraphModel dx="2440" dy="1407" grid="0" gridSize="10" guides="1" tooltips="1" connect="1" arrows="1" fold="1" page="1" pageScale="1" pageWidth="1600" pageHeight="1200" math="0" shadow="0">
      <root>
        <mxCell id="0" />
        <mxCell id="1" parent="0" />
        <mxCell id="Pz952ifp0xKUWONjBoJJ-8" style="edgeStyle=orthogonalEdgeStyle;rounded=0;orthogonalLoop=1;jettySize=auto;html=1;entryX=1;entryY=0.5;entryDx=0;entryDy=0;exitX=0.25;exitY=1;exitDx=0;exitDy=0;dashed=1;" parent="1" source="Pz952ifp0xKUWONjBoJJ-5" target="h2PM3oMP3MXxl9iQ3OsZ-29" edge="1">
          <mxGeometry relative="1" as="geometry" />
        </mxCell>
        <mxCell id="Pz952ifp0xKUWONjBoJJ-5" value="ECR" style="rounded=0;whiteSpace=wrap;html=1;fillColor=#ffe6cc;strokeColor=#d79b00;fontSize=10;verticalAlign=top;align=left;spacingLeft=30;" parent="1" vertex="1">
          <mxGeometry x="1103" y="492" width="119" height="131" as="geometry" />
        </mxCell>
        <mxCell id="h2PM3oMP3MXxl9iQ3OsZ-6" value="AWS Cloud" style="points=[[0,0],[0.25,0],[0.5,0],[0.75,0],[1,0],[1,0.25],[1,0.5],[1,0.75],[1,1],[0.75,1],[0.5,1],[0.25,1],[0,1],[0,0.75],[0,0.5],[0,0.25]];outlineConnect=0;gradientColor=none;html=1;whiteSpace=wrap;fontSize=12;fontStyle=0;container=0;pointerEvents=0;collapsible=0;recursiveResize=0;shape=mxgraph.aws4.group;grIcon=mxgraph.aws4.group_aws_cloud_alt;strokeColor=#232F3E;fillColor=none;verticalAlign=top;align=left;spacingLeft=30;fontColor=#232F3E;dashed=0;" parent="1" vertex="1">
          <mxGeometry x="178" y="297" width="1081" height="653" as="geometry" />
        </mxCell>
        <mxCell id="h2PM3oMP3MXxl9iQ3OsZ-4" value="VPC (10.0.0.0/16)" style="points=[[0,0],[0.25,0],[0.5,0],[0.75,0],[1,0],[1,0.25],[1,0.5],[1,0.75],[1,1],[0.75,1],[0.5,1],[0.25,1],[0,1],[0,0.75],[0,0.5],[0,0.25]];outlineConnect=0;gradientColor=none;html=1;whiteSpace=wrap;fontSize=10;fontStyle=0;container=0;pointerEvents=0;collapsible=0;recursiveResize=0;shape=mxgraph.aws4.group;grIcon=mxgraph.aws4.group_vpc2;strokeColor=#8C4FFF;fillColor=none;verticalAlign=top;align=left;spacingLeft=30;fontColor=#000000;dashed=0;" parent="1" vertex="1">
          <mxGeometry x="233" y="328" width="834" height="607" as="geometry" />
        </mxCell>
        <mxCell id="h2PM3oMP3MXxl9iQ3OsZ-7" value="us-east-1b" style="fillColor=none;strokeColor=#147EBA;dashed=1;verticalAlign=top;fontStyle=0;fontColor=#147EBA;whiteSpace=wrap;html=1;movable=1;resizable=1;rotatable=1;deletable=1;editable=1;locked=0;connectable=1;" parent="1" vertex="1">
          <mxGeometry x="577" y="378" width="220" height="531" as="geometry" />
        </mxCell>
        <mxCell id="h2PM3oMP3MXxl9iQ3OsZ-5" value="us-east-1a" style="fillColor=none;strokeColor=#147EBA;dashed=1;verticalAlign=top;fontStyle=0;fontColor=#147EBA;whiteSpace=wrap;html=1;" parent="1" vertex="1">
          <mxGeometry x="347" y="378" width="220" height="531" as="geometry" />
        </mxCell>
        <mxCell id="h2PM3oMP3MXxl9iQ3OsZ-8" value="us-east-1c" style="fillColor=none;strokeColor=#147EBA;dashed=1;verticalAlign=top;fontStyle=0;fontColor=#147EBA;whiteSpace=wrap;html=1;" parent="1" vertex="1">
          <mxGeometry x="807" y="378" width="220" height="531" as="geometry" />
        </mxCell>
        <mxCell id="h2PM3oMP3MXxl9iQ3OsZ-3" value="private-app-1a &lt;font style=&quot;font-size: 8px;&quot;&gt;(10.0.10.0/24)&lt;/font&gt;" style="points=[[0,0],[0.25,0],[0.5,0],[0.75,0],[1,0],[1,0.25],[1,0.5],[1,0.75],[1,1],[0.75,1],[0.5,1],[0.25,1],[0,1],[0,0.75],[0,0.5],[0,0.25]];outlineConnect=0;gradientColor=none;html=1;whiteSpace=wrap;fontSize=12;fontStyle=0;container=1;pointerEvents=0;collapsible=0;recursiveResize=0;shape=mxgraph.aws4.group;grIcon=mxgraph.aws4.group_security_group;grStroke=0;strokeColor=#00A4A6;fillColor=#E6F6F7;verticalAlign=top;align=left;spacingLeft=30;fontColor=#147EBA;dashed=0;" parent="1" vertex="1">
          <mxGeometry x="367" y="558" width="180" height="200" as="geometry" />
        </mxCell>
        <mxCell id="h2PM3oMP3MXxl9iQ3OsZ-11" value="public-1a &lt;font style=&quot;font-size: 8px;&quot;&gt;(10.0.0.0/24)&lt;/font&gt;" style="points=[[0,0],[0.25,0],[0.5,0],[0.75,0],[1,0],[1,0.25],[1,0.5],[1,0.75],[1,1],[0.75,1],[0.5,1],[0.25,1],[0,1],[0,0.75],[0,0.5],[0,0.25]];outlineConnect=0;gradientColor=none;html=1;whiteSpace=wrap;fontSize=12;fontStyle=0;container=1;pointerEvents=0;collapsible=0;recursiveResize=0;shape=mxgraph.aws4.group;grIcon=mxgraph.aws4.group_security_group;grStroke=0;strokeColor=#7AA116;fillColor=#F2F6E8;verticalAlign=top;align=left;spacingLeft=30;fontColor=#248814;dashed=0;" parent="1" vertex="1">
          <mxGeometry x="367" y="418" width="180" height="130" as="geometry" />
        </mxCell>
        <mxCell id="h2PM3oMP3MXxl9iQ3OsZ-21" value="" style="sketch=0;points=[[0,0,0],[0.25,0,0],[0.5,0,0],[0.75,0,0],[1,0,0],[0,1,0],[0.25,1,0],[0.5,1,0],[0.75,1,0],[1,1,0],[0,0.25,0],[0,0.5,0],[0,0.75,0],[1,0.25,0],[1,0.5,0],[1,0.75,0]];outlineConnect=0;fontColor=#232F3E;fillColor=#8C4FFF;strokeColor=#ffffff;dashed=0;verticalLabelPosition=bottom;verticalAlign=top;align=center;html=1;fontSize=12;fontStyle=0;aspect=fixed;shape=mxgraph.aws4.resourceIcon;resIcon=mxgraph.aws4.elastic_load_balancing;" parent="h2PM3oMP3MXxl9iQ3OsZ-11" vertex="1">
          <mxGeometry x="66" y="58" width="48" height="48" as="geometry" />
        </mxCell>
        <mxCell id="h2PM3oMP3MXxl9iQ3OsZ-12" value="private-app-1b&amp;nbsp;&lt;font style=&quot;font-size: 8px;&quot;&gt;(10.0.11.0/24)&lt;/font&gt;" style="points=[[0,0],[0.25,0],[0.5,0],[0.75,0],[1,0],[1,0.25],[1,0.5],[1,0.75],[1,1],[0.75,1],[0.5,1],[0.25,1],[0,1],[0,0.75],[0,0.5],[0,0.25]];outlineConnect=0;gradientColor=none;html=1;whiteSpace=wrap;fontSize=12;fontStyle=0;container=1;pointerEvents=0;collapsible=0;recursiveResize=0;shape=mxgraph.aws4.group;grIcon=mxgraph.aws4.group_security_group;grStroke=0;strokeColor=#00A4A6;fillColor=#E6F6F7;verticalAlign=top;align=left;spacingLeft=30;fontColor=#147EBA;dashed=0;" parent="1" vertex="1">
          <mxGeometry x="597" y="558" width="180" height="200" as="geometry" />
        </mxCell>
        <mxCell id="h2PM3oMP3MXxl9iQ3OsZ-13" value="public-1b &lt;font style=&quot;font-size: 8px;&quot;&gt;(10.0.1.0/24)&lt;/font&gt;" style="points=[[0,0],[0.25,0],[0.5,0],[0.75,0],[1,0],[1,0.25],[1,0.5],[1,0.75],[1,1],[0.75,1],[0.5,1],[0.25,1],[0,1],[0,0.75],[0,0.5],[0,0.25]];outlineConnect=0;gradientColor=none;html=1;whiteSpace=wrap;fontSize=12;fontStyle=0;container=1;pointerEvents=0;collapsible=0;recursiveResize=0;shape=mxgraph.aws4.group;grIcon=mxgraph.aws4.group_security_group;grStroke=0;strokeColor=#7AA116;fillColor=#F2F6E8;verticalAlign=top;align=left;spacingLeft=30;fontColor=#248814;dashed=0;" parent="1" vertex="1">
          <mxGeometry x="597" y="418" width="180" height="130" as="geometry" />
        </mxCell>
        <mxCell id="h2PM3oMP3MXxl9iQ3OsZ-22" value="" style="sketch=0;points=[[0,0,0],[0.25,0,0],[0.5,0,0],[0.75,0,0],[1,0,0],[0,1,0],[0.25,1,0],[0.5,1,0],[0.75,1,0],[1,1,0],[0,0.25,0],[0,0.5,0],[0,0.75,0],[1,0.25,0],[1,0.5,0],[1,0.75,0]];outlineConnect=0;fontColor=#232F3E;fillColor=#8C4FFF;strokeColor=#ffffff;dashed=0;verticalLabelPosition=bottom;verticalAlign=top;align=center;html=1;fontSize=12;fontStyle=0;aspect=fixed;shape=mxgraph.aws4.resourceIcon;resIcon=mxgraph.aws4.elastic_load_balancing;" parent="h2PM3oMP3MXxl9iQ3OsZ-13" vertex="1">
          <mxGeometry x="67" y="60" width="48" height="48" as="geometry" />
        </mxCell>
        <mxCell id="h2PM3oMP3MXxl9iQ3OsZ-14" value="private-app-1c&amp;nbsp;&lt;font style=&quot;font-size: 8px;&quot;&gt;(10.0.12.0/24)&lt;/font&gt;" style="points=[[0,0],[0.25,0],[0.5,0],[0.75,0],[1,0],[1,0.25],[1,0.5],[1,0.75],[1,1],[0.75,1],[0.5,1],[0.25,1],[0,1],[0,0.75],[0,0.5],[0,0.25]];outlineConnect=0;gradientColor=none;html=1;whiteSpace=wrap;fontSize=12;fontStyle=0;container=1;pointerEvents=0;collapsible=0;recursiveResize=0;shape=mxgraph.aws4.group;grIcon=mxgraph.aws4.group_security_group;grStroke=0;strokeColor=#00A4A6;fillColor=#E6F6F7;verticalAlign=top;align=left;spacingLeft=30;fontColor=#147EBA;dashed=0;" parent="1" vertex="1">
          <mxGeometry x="827" y="558" width="180" height="200" as="geometry" />
        </mxCell>
        <mxCell id="h2PM3oMP3MXxl9iQ3OsZ-15" value="public-1c&amp;nbsp;&lt;font style=&quot;font-size: 8px;&quot;&gt;(10.0.2.0/24)&lt;/font&gt;" style="points=[[0,0],[0.25,0],[0.5,0],[0.75,0],[1,0],[1,0.25],[1,0.5],[1,0.75],[1,1],[0.75,1],[0.5,1],[0.25,1],[0,1],[0,0.75],[0,0.5],[0,0.25]];outlineConnect=0;gradientColor=none;html=1;whiteSpace=wrap;fontSize=12;fontStyle=0;container=1;pointerEvents=0;collapsible=0;recursiveResize=0;shape=mxgraph.aws4.group;grIcon=mxgraph.aws4.group_security_group;grStroke=0;strokeColor=#7AA116;fillColor=#F2F6E8;verticalAlign=top;align=left;spacingLeft=30;fontColor=#248814;dashed=0;" parent="1" vertex="1">
          <mxGeometry x="827" y="418" width="180" height="130" as="geometry" />
        </mxCell>
        <mxCell id="h2PM3oMP3MXxl9iQ3OsZ-23" value="" style="sketch=0;points=[[0,0,0],[0.25,0,0],[0.5,0,0],[0.75,0,0],[1,0,0],[0,1,0],[0.25,1,0],[0.5,1,0],[0.75,1,0],[1,1,0],[0,0.25,0],[0,0.5,0],[0,0.75,0],[1,0.25,0],[1,0.5,0],[1,0.75,0]];outlineConnect=0;fontColor=#232F3E;fillColor=#8C4FFF;strokeColor=#ffffff;dashed=0;verticalLabelPosition=bottom;verticalAlign=top;align=center;html=1;fontSize=12;fontStyle=0;aspect=fixed;shape=mxgraph.aws4.resourceIcon;resIcon=mxgraph.aws4.elastic_load_balancing;" parent="h2PM3oMP3MXxl9iQ3OsZ-15" vertex="1">
          <mxGeometry x="66.5" y="60" width="48" height="48" as="geometry" />
        </mxCell>
        <mxCell id="h2PM3oMP3MXxl9iQ3OsZ-17" value="Auto Scaling group" style="points=[[0,0],[0.25,0],[0.5,0],[0.75,0],[1,0],[1,0.25],[1,0.5],[1,0.75],[1,1],[0.75,1],[0.5,1],[0.25,1],[0,1],[0,0.75],[0,0.5],[0,0.25]];outlineConnect=0;gradientColor=none;html=1;whiteSpace=wrap;fontSize=12;fontStyle=0;container=1;pointerEvents=0;collapsible=0;recursiveResize=0;shape=mxgraph.aws4.groupCenter;grIcon=mxgraph.aws4.group_auto_scaling_group;grStroke=1;strokeColor=#D86613;fillColor=none;verticalAlign=top;align=center;fontColor=#D86613;dashed=1;spacingTop=25;" parent="1" vertex="1">
          <mxGeometry x="377" y="610" width="620" height="130" as="geometry" />
        </mxCell>
        <mxCell id="FCoVTNfuQ8IPg_AGg9_z-16" style="edgeStyle=orthogonalEdgeStyle;rounded=0;orthogonalLoop=1;jettySize=auto;html=1;exitX=0;exitY=0.75;exitDx=0;exitDy=0;entryX=0;entryY=0.5;entryDx=0;entryDy=0;strokeWidth=2;strokeColor=#4D4D4D;" parent="1" source="h2PM3oMP3MXxl9iQ3OsZ-24" target="h2PM3oMP3MXxl9iQ3OsZ-29" edge="1">
          <mxGeometry relative="1" as="geometry">
            <Array as="points">
              <mxPoint x="273" y="516" />
              <mxPoint x="273" y="675" />
            </Array>
          </mxGeometry>
        </mxCell>
        <mxCell id="h2PM3oMP3MXxl9iQ3OsZ-24" value="Applicaion Load Balancer" style="rounded=0;whiteSpace=wrap;html=1;fillColor=none;dashed=1;strokeColor=#7F00FF;verticalAlign=top;spacing=0;spacingTop=-3;fontColor=#8000ff;" parent="1" vertex="1">
          <mxGeometry x="419" y="456" width="538" height="80" as="geometry" />
        </mxCell>
        <mxCell id="h2PM3oMP3MXxl9iQ3OsZ-47" style="edgeStyle=orthogonalEdgeStyle;rounded=0;orthogonalLoop=1;jettySize=auto;html=1;fillColor=#f5f5f5;strokeColor=#666666;dashed=1;dashPattern=1 1;" parent="1" source="h2PM3oMP3MXxl9iQ3OsZ-25" target="h2PM3oMP3MXxl9iQ3OsZ-39" edge="1">
          <mxGeometry relative="1" as="geometry" />
        </mxCell>
        <mxCell id="h2PM3oMP3MXxl9iQ3OsZ-25" value="ec2" style="sketch=0;points=[[0,0,0],[0.25,0,0],[0.5,0,0],[0.75,0,0],[1,0,0],[0,1,0],[0.25,1,0],[0.5,1,0],[0.75,1,0],[1,1,0],[0,0.25,0],[0,0.5,0],[0,0.75,0],[1,0.25,0],[1,0.5,0],[1,0.75,0]];outlineConnect=0;fontColor=#FF8000;fillColor=#ED7100;strokeColor=#ffffff;dashed=0;verticalLabelPosition=bottom;verticalAlign=top;align=center;html=1;fontSize=12;fontStyle=0;aspect=fixed;shape=mxgraph.aws4.resourceIcon;resIcon=mxgraph.aws4.ec2;spacing=0;spacingTop=-3;" parent="1" vertex="1">
          <mxGeometry x="432.5" y="669" width="49" height="49" as="geometry" />
        </mxCell>
        <mxCell id="h2PM3oMP3MXxl9iQ3OsZ-48" style="edgeStyle=orthogonalEdgeStyle;rounded=0;orthogonalLoop=1;jettySize=auto;html=1;fillColor=#f5f5f5;strokeColor=#666666;dashed=1;dashPattern=1 1;" parent="1" source="h2PM3oMP3MXxl9iQ3OsZ-26" target="h2PM3oMP3MXxl9iQ3OsZ-40" edge="1">
          <mxGeometry relative="1" as="geometry" />
        </mxCell>
        <mxCell id="h2PM3oMP3MXxl9iQ3OsZ-26" value="ec2" style="sketch=0;points=[[0,0,0],[0.25,0,0],[0.5,0,0],[0.75,0,0],[1,0,0],[0,1,0],[0.25,1,0],[0.5,1,0],[0.75,1,0],[1,1,0],[0,0.25,0],[0,0.5,0],[0,0.75,0],[1,0.25,0],[1,0.5,0],[1,0.75,0]];outlineConnect=0;fontColor=#FF8000;fillColor=#ED7100;strokeColor=#ffffff;dashed=0;verticalLabelPosition=bottom;verticalAlign=top;align=center;html=1;fontSize=12;fontStyle=0;aspect=fixed;shape=mxgraph.aws4.resourceIcon;resIcon=mxgraph.aws4.ec2;spacing=0;spacingTop=-3;" parent="1" vertex="1">
          <mxGeometry x="663.5" y="669" width="49" height="49" as="geometry" />
        </mxCell>
        <mxCell id="h2PM3oMP3MXxl9iQ3OsZ-49" style="edgeStyle=orthogonalEdgeStyle;rounded=0;orthogonalLoop=1;jettySize=auto;html=1;dashed=1;dashPattern=1 1;fillColor=#f5f5f5;strokeColor=#666666;" parent="1" source="h2PM3oMP3MXxl9iQ3OsZ-27" target="h2PM3oMP3MXxl9iQ3OsZ-41" edge="1">
          <mxGeometry relative="1" as="geometry" />
        </mxCell>
        <mxCell id="h2PM3oMP3MXxl9iQ3OsZ-27" value="ec2" style="sketch=0;points=[[0,0,0],[0.25,0,0],[0.5,0,0],[0.75,0,0],[1,0,0],[0,1,0],[0.25,1,0],[0.5,1,0],[0.75,1,0],[1,1,0],[0,0.25,0],[0,0.5,0],[0,0.75,0],[1,0.25,0],[1,0.5,0],[1,0.75,0]];outlineConnect=0;fontColor=#FF8000;fillColor=#ED7100;strokeColor=#ffffff;dashed=0;verticalLabelPosition=bottom;verticalAlign=top;align=center;html=1;fontSize=12;fontStyle=0;aspect=fixed;shape=mxgraph.aws4.resourceIcon;resIcon=mxgraph.aws4.ec2;spacing=0;spacingTop=-3;" parent="1" vertex="1">
          <mxGeometry x="892.5" y="669" width="49" height="49" as="geometry" />
        </mxCell>
        <mxCell id="h2PM3oMP3MXxl9iQ3OsZ-32" value="private-db-1a&amp;nbsp;&lt;font style=&quot;font-size: 8px;&quot;&gt;(10.0.20.0/24)&lt;/font&gt;" style="points=[[0,0],[0.25,0],[0.5,0],[0.75,0],[1,0],[1,0.25],[1,0.5],[1,0.75],[1,1],[0.75,1],[0.5,1],[0.25,1],[0,1],[0,0.75],[0,0.5],[0,0.25]];outlineConnect=0;gradientColor=none;html=1;whiteSpace=wrap;fontSize=12;fontStyle=0;container=1;pointerEvents=0;collapsible=0;recursiveResize=0;shape=mxgraph.aws4.group;grIcon=mxgraph.aws4.group_security_group;grStroke=0;strokeColor=#00A4A6;fillColor=#E6F6F7;verticalAlign=top;align=left;spacingLeft=30;fontColor=#147EBA;dashed=0;" parent="1" vertex="1">
          <mxGeometry x="367" y="768" width="180" height="130" as="geometry" />
        </mxCell>
        <mxCell id="h2PM3oMP3MXxl9iQ3OsZ-33" value="private-db-1b&amp;nbsp;&lt;font style=&quot;font-size: 8px;&quot;&gt;(10.0.21.0/24)&lt;/font&gt;" style="points=[[0,0],[0.25,0],[0.5,0],[0.75,0],[1,0],[1,0.25],[1,0.5],[1,0.75],[1,1],[0.75,1],[0.5,1],[0.25,1],[0,1],[0,0.75],[0,0.5],[0,0.25]];outlineConnect=0;gradientColor=none;html=1;whiteSpace=wrap;fontSize=12;fontStyle=0;container=1;pointerEvents=0;collapsible=0;recursiveResize=0;shape=mxgraph.aws4.group;grIcon=mxgraph.aws4.group_security_group;grStroke=0;strokeColor=#00A4A6;fillColor=#E6F6F7;verticalAlign=top;align=left;spacingLeft=30;fontColor=#147EBA;dashed=0;" parent="1" vertex="1">
          <mxGeometry x="598" y="768" width="180" height="130" as="geometry" />
        </mxCell>
        <mxCell id="h2PM3oMP3MXxl9iQ3OsZ-34" value="private-db-1c&amp;nbsp;&lt;font style=&quot;font-size: 8px;&quot;&gt;(10.0.22.0/24)&lt;/font&gt;" style="points=[[0,0],[0.25,0],[0.5,0],[0.75,0],[1,0],[1,0.25],[1,0.5],[1,0.75],[1,1],[0.75,1],[0.5,1],[0.25,1],[0,1],[0,0.75],[0,0.5],[0,0.25]];outlineConnect=0;gradientColor=none;html=1;whiteSpace=wrap;fontSize=12;fontStyle=0;container=1;pointerEvents=0;collapsible=0;recursiveResize=0;shape=mxgraph.aws4.group;grIcon=mxgraph.aws4.group_security_group;grStroke=0;strokeColor=#00A4A6;fillColor=#E6F6F7;verticalAlign=top;align=left;spacingLeft=30;fontColor=#147EBA;dashed=0;" parent="1" vertex="1">
          <mxGeometry x="827" y="768" width="180" height="130" as="geometry" />
        </mxCell>
        <mxCell id="h2PM3oMP3MXxl9iQ3OsZ-35" value="RDS" style="rounded=0;whiteSpace=wrap;html=1;fillColor=none;dashed=1;strokeColor=#005DBA;verticalAlign=top;spacing=0;spacingTop=1;fontColor=#005DBA;align=left;spacingLeft=31;" parent="1" vertex="1">
          <mxGeometry x="402" y="808" width="576" height="80" as="geometry" />
        </mxCell>
        <mxCell id="h2PM3oMP3MXxl9iQ3OsZ-81" style="edgeStyle=orthogonalEdgeStyle;rounded=0;orthogonalLoop=1;jettySize=auto;html=1;endArrow=none;endFill=0;dashed=1;dashPattern=1 1;" parent="1" source="h2PM3oMP3MXxl9iQ3OsZ-39" edge="1">
          <mxGeometry relative="1" as="geometry">
            <mxPoint x="533" y="364" as="targetPoint" />
          </mxGeometry>
        </mxCell>
        <mxCell id="h2PM3oMP3MXxl9iQ3OsZ-39" value="" style="sketch=0;outlineConnect=0;fontColor=#232F3E;gradientColor=none;fillColor=#8C4FFF;strokeColor=none;dashed=0;verticalLabelPosition=bottom;verticalAlign=top;align=center;html=1;fontSize=12;fontStyle=0;aspect=fixed;pointerEvents=1;shape=mxgraph.aws4.nat_gateway;" parent="1" vertex="1">
          <mxGeometry x="519" y="418" width="28" height="28" as="geometry" />
        </mxCell>
        <mxCell id="h2PM3oMP3MXxl9iQ3OsZ-82" style="edgeStyle=orthogonalEdgeStyle;rounded=0;orthogonalLoop=1;jettySize=auto;html=1;endArrow=none;endFill=0;dashed=1;dashPattern=1 1;" parent="1" source="h2PM3oMP3MXxl9iQ3OsZ-40" edge="1">
          <mxGeometry relative="1" as="geometry">
            <mxPoint x="764" y="364" as="targetPoint" />
          </mxGeometry>
        </mxCell>
        <mxCell id="h2PM3oMP3MXxl9iQ3OsZ-40" value="" style="sketch=0;outlineConnect=0;fontColor=#232F3E;gradientColor=none;fillColor=#8C4FFF;strokeColor=none;dashed=0;verticalLabelPosition=bottom;verticalAlign=top;align=center;html=1;fontSize=12;fontStyle=0;aspect=fixed;pointerEvents=1;shape=mxgraph.aws4.nat_gateway;" parent="1" vertex="1">
          <mxGeometry x="750" y="418" width="28" height="28" as="geometry" />
        </mxCell>
        <mxCell id="h2PM3oMP3MXxl9iQ3OsZ-80" style="edgeStyle=orthogonalEdgeStyle;rounded=0;orthogonalLoop=1;jettySize=auto;html=1;entryX=1;entryY=0.25;entryDx=0;entryDy=0;dashed=1;dashPattern=1 1;" parent="1" source="h2PM3oMP3MXxl9iQ3OsZ-41" target="h2PM3oMP3MXxl9iQ3OsZ-77" edge="1">
          <mxGeometry relative="1" as="geometry">
            <Array as="points">
              <mxPoint x="993" y="364" />
              <mxPoint x="330" y="364" />
              <mxPoint x="330" y="390" />
            </Array>
          </mxGeometry>
        </mxCell>
        <mxCell id="h2PM3oMP3MXxl9iQ3OsZ-41" value="" style="sketch=0;outlineConnect=0;fontColor=#232F3E;gradientColor=none;fillColor=#8C4FFF;strokeColor=none;dashed=0;verticalLabelPosition=bottom;verticalAlign=top;align=center;html=1;fontSize=12;fontStyle=0;aspect=fixed;pointerEvents=1;shape=mxgraph.aws4.nat_gateway;" parent="1" vertex="1">
          <mxGeometry x="979" y="418" width="28" height="28" as="geometry" />
        </mxCell>
        <mxCell id="h2PM3oMP3MXxl9iQ3OsZ-54" style="edgeStyle=orthogonalEdgeStyle;rounded=0;orthogonalLoop=1;jettySize=auto;html=1;entryX=0;entryY=0.25;entryDx=0;entryDy=0;fillColor=#f5f5f5;strokeColor=#666666;strokeWidth=2;exitX=1;exitY=0.5;exitDx=0;exitDy=0;" parent="1" source="h2PM3oMP3MXxl9iQ3OsZ-77" target="h2PM3oMP3MXxl9iQ3OsZ-24" edge="1">
          <mxGeometry relative="1" as="geometry">
            <Array as="points">
              <mxPoint x="274" y="408" />
              <mxPoint x="274" y="476" />
            </Array>
          </mxGeometry>
        </mxCell>
        <mxCell id="h2PM3oMP3MXxl9iQ3OsZ-71" value="" style="group" parent="1" vertex="1" connectable="0">
          <mxGeometry x="307" y="600.5" width="730" height="149.5" as="geometry" />
        </mxCell>
        <mxCell id="h2PM3oMP3MXxl9iQ3OsZ-29" value="EKS" style="rounded=0;whiteSpace=wrap;html=1;strokeColor=#FF8000;dashed=1;fillColor=none;align=left;verticalAlign=top;spacingTop=21;spacingLeft=5;fontSize=9;strokeWidth=2;" parent="h2PM3oMP3MXxl9iQ3OsZ-71" vertex="1">
          <mxGeometry width="730" height="149.5" as="geometry" />
        </mxCell>
        <mxCell id="h2PM3oMP3MXxl9iQ3OsZ-70" value="" style="sketch=0;points=[[0,0,0],[0.25,0,0],[0.5,0,0],[0.75,0,0],[1,0,0],[0,1,0],[0.25,1,0],[0.5,1,0],[0.75,1,0],[1,1,0],[0,0.25,0],[0,0.5,0],[0,0.75,0],[1,0.25,0],[1,0.5,0],[1,0.75,0]];outlineConnect=0;fontColor=#232F3E;fillColor=#ED7100;strokeColor=#ffffff;dashed=0;verticalLabelPosition=bottom;verticalAlign=top;align=center;html=1;fontSize=12;fontStyle=0;aspect=fixed;shape=mxgraph.aws4.resourceIcon;resIcon=mxgraph.aws4.eks;" parent="h2PM3oMP3MXxl9iQ3OsZ-71" vertex="1">
          <mxGeometry x="-1" y="-2.5" width="30" height="30" as="geometry" />
        </mxCell>
        <mxCell id="e8v7B2R5iquHU8SgBQqi-1" value="" style="sketch=0;points=[[0,0,0],[0.25,0,0],[0.5,0,0],[0.75,0,0],[1,0,0],[0,1,0],[0.25,1,0],[0.5,1,0],[0.75,1,0],[1,1,0],[0,0.25,0],[0,0.5,0],[0,0.75,0],[1,0.25,0],[1,0.5,0],[1,0.75,0]];outlineConnect=0;fillColor=#2f75bc;strokeColor=#FFFFFF;dashed=0;verticalLabelPosition=bottom;verticalAlign=top;align=center;html=1;fontSize=12;fontStyle=0;aspect=fixed;shape=mxgraph.aws4.resourceIcon;resIcon=mxgraph.aws4.rds;" parent="1" vertex="1">
          <mxGeometry x="401" y="807" width="28" height="28" as="geometry" />
        </mxCell>
        <mxCell id="e8v7B2R5iquHU8SgBQqi-2" value="" style="outlineConnect=0;dashed=0;verticalLabelPosition=bottom;verticalAlign=top;align=center;html=1;shape=mxgraph.aws3.rds_db_instance;fillColor=#2E73B8;gradientColor=none;" parent="1" vertex="1">
          <mxGeometry x="474" y="832" width="36" height="48" as="geometry" />
        </mxCell>
        <mxCell id="e8v7B2R5iquHU8SgBQqi-3" value="" style="outlineConnect=0;dashed=0;verticalLabelPosition=bottom;verticalAlign=top;align=center;html=1;shape=mxgraph.aws3.rds_db_instance_standby_multi_az;fillColor=#2E73B8;gradientColor=none;opacity=50;" parent="1" vertex="1">
          <mxGeometry x="673" y="832" width="36" height="48" as="geometry" />
        </mxCell>
        <mxCell id="e8v7B2R5iquHU8SgBQqi-4" value="" style="outlineConnect=0;dashed=0;verticalLabelPosition=bottom;verticalAlign=top;align=center;html=1;shape=mxgraph.aws3.rds_db_instance_standby_multi_az;fillColor=#2E73B8;gradientColor=none;opacity=50;" parent="1" vertex="1">
          <mxGeometry x="899" y="832" width="36" height="48" as="geometry" />
        </mxCell>
        <mxCell id="FCoVTNfuQ8IPg_AGg9_z-1" value="" style="group" parent="1" vertex="1" connectable="0">
          <mxGeometry x="1103" y="328" width="170" height="140" as="geometry" />
        </mxCell>
        <mxCell id="h2PM3oMP3MXxl9iQ3OsZ-61" value="S3" style="rounded=0;whiteSpace=wrap;html=1;fillColor=#d5e8d4;strokeColor=#82b366;verticalAlign=top;align=left;spacingLeft=36;" parent="FCoVTNfuQ8IPg_AGg9_z-1" vertex="1">
          <mxGeometry width="118" height="128" as="geometry" />
        </mxCell>
        <mxCell id="h2PM3oMP3MXxl9iQ3OsZ-60" value="" style="sketch=0;points=[[0,0,0],[0.25,0,0],[0.5,0,0],[0.75,0,0],[1,0,0],[0,1,0],[0.25,1,0],[0.5,1,0],[0.75,1,0],[1,1,0],[0,0.25,0],[0,0.5,0],[0,0.75,0],[1,0.25,0],[1,0.5,0],[1,0.75,0]];outlineConnect=0;fontColor=#232F3E;fillColor=#7AA116;strokeColor=#ffffff;dashed=0;verticalLabelPosition=bottom;verticalAlign=top;align=center;html=1;fontSize=12;fontStyle=0;aspect=fixed;shape=mxgraph.aws4.resourceIcon;resIcon=mxgraph.aws4.s3;" parent="FCoVTNfuQ8IPg_AGg9_z-1" vertex="1">
          <mxGeometry width="31.75" height="31.75" as="geometry" />
        </mxCell>
        <mxCell id="h2PM3oMP3MXxl9iQ3OsZ-66" value="&lt;div&gt;Terraform&lt;/div&gt;&lt;div&gt;Bucket&lt;br&gt;&lt;/div&gt;" style="sketch=0;outlineConnect=0;fontColor=#232F3E;gradientColor=none;fillColor=#7AA116;strokeColor=none;dashed=0;verticalLabelPosition=bottom;verticalAlign=top;align=center;html=1;fontSize=8;fontStyle=0;aspect=fixed;pointerEvents=1;shape=mxgraph.aws4.bucket;" parent="FCoVTNfuQ8IPg_AGg9_z-1" vertex="1">
          <mxGeometry x="48" y="50" width="38.46" height="40" as="geometry" />
        </mxCell>
        <mxCell id="FCoVTNfuQ8IPg_AGg9_z-15" value="" style="group" parent="1" vertex="1" connectable="0">
          <mxGeometry x="212" y="372" width="44" height="71" as="geometry" />
        </mxCell>
        <mxCell id="h2PM3oMP3MXxl9iQ3OsZ-77" value="" style="rounded=0;whiteSpace=wrap;html=1;fillColor=#FFFFFF;strokeColor=#9673a6;" parent="FCoVTNfuQ8IPg_AGg9_z-15" vertex="1">
          <mxGeometry width="44" height="71" as="geometry" />
        </mxCell>
        <mxCell id="h2PM3oMP3MXxl9iQ3OsZ-42" value="&lt;div&gt;Internet&lt;/div&gt;&lt;div&gt;Gateway&lt;/div&gt;" style="sketch=0;outlineConnect=0;fontColor=#232F3E;gradientColor=none;fillColor=#8C4FFF;strokeColor=none;dashed=0;verticalLabelPosition=bottom;verticalAlign=top;align=center;html=1;fontSize=8;fontStyle=0;aspect=fixed;pointerEvents=1;shape=mxgraph.aws4.internet_gateway;" parent="FCoVTNfuQ8IPg_AGg9_z-15" vertex="1">
          <mxGeometry x="2" y="4" width="40" height="40" as="geometry" />
        </mxCell>
        <mxCell id="FCoVTNfuQ8IPg_AGg9_z-17" style="edgeStyle=orthogonalEdgeStyle;rounded=0;orthogonalLoop=1;jettySize=auto;html=1;exitX=0;exitY=0.75;exitDx=0;exitDy=0;entryX=0;entryY=0.5;entryDx=0;entryDy=0;strokeWidth=2;strokeColor=#4D4D4D;" parent="1" source="h2PM3oMP3MXxl9iQ3OsZ-29" target="h2PM3oMP3MXxl9iQ3OsZ-35" edge="1">
          <mxGeometry relative="1" as="geometry">
            <Array as="points">
              <mxPoint x="273" y="713" />
              <mxPoint x="273" y="848" />
            </Array>
          </mxGeometry>
        </mxCell>
        <mxCell id="Pz952ifp0xKUWONjBoJJ-4" value="" style="sketch=0;points=[[0,0,0],[0.25,0,0],[0.5,0,0],[0.75,0,0],[1,0,0],[0,1,0],[0.25,1,0],[0.5,1,0],[0.75,1,0],[1,1,0],[0,0.25,0],[0,0.5,0],[0,0.75,0],[1,0.25,0],[1,0.5,0],[1,0.75,0]];outlineConnect=0;fontColor=#232F3E;fillColor=#ED7100;strokeColor=#ffffff;dashed=0;verticalLabelPosition=bottom;verticalAlign=top;align=center;html=1;fontSize=12;fontStyle=0;aspect=fixed;shape=mxgraph.aws4.resourceIcon;resIcon=mxgraph.aws4.ecr;" parent="1" vertex="1">
          <mxGeometry x="1103" y="492" width="29" height="29" as="geometry" />
        </mxCell>
        <mxCell id="Pz952ifp0xKUWONjBoJJ-6" value="Container&lt;br style=&quot;font-size: 8px;&quot;&gt;Image" style="sketch=0;outlineConnect=0;fontColor=#232F3E;gradientColor=none;fillColor=#ED7100;strokeColor=none;dashed=0;verticalLabelPosition=bottom;verticalAlign=top;align=center;html=1;fontSize=8;fontStyle=0;aspect=fixed;pointerEvents=1;shape=mxgraph.aws4.container_registry_image;" parent="1" vertex="1">
          <mxGeometry x="1119" y="538" width="31" height="31" as="geometry" />
        </mxCell>
        <mxCell id="Pz952ifp0xKUWONjBoJJ-19" style="edgeStyle=orthogonalEdgeStyle;rounded=0;orthogonalLoop=1;jettySize=auto;html=1;entryX=0;entryY=0.5;entryDx=0;entryDy=0;strokeWidth=2;exitX=1;exitY=0.5;exitDx=0;exitDy=0;" parent="1" source="Pz952ifp0xKUWONjBoJJ-10" target="h2PM3oMP3MXxl9iQ3OsZ-77" edge="1">
          <mxGeometry relative="1" as="geometry" />
        </mxCell>
        <mxCell id="Omu4mrXGBT7mXpVm0lrH-1" value="Helm Chart" style="shape=image;verticalLabelPosition=bottom;labelBackgroundColor=none;verticalAlign=top;aspect=fixed;imageAspect=0;image=data:image/svg+xml,PHN2ZyB4bWxuczp4bGluaz0iaHR0cDovL3d3dy53My5vcmcvMTk5OS94bGluayIgeG1sbnM9Imh0dHA6Ly93d3cudzMub3JnLzIwMDAvc3ZnIiB3aWR0aD0iMzA0IiB2aWV3Qm94PSIwIDAgMzA0IDM1MSIgaGVpZ2h0PSIzNTEiPiYjeGE7PG1hc2sgZmlsbD0iI2ZmZiIgaWQ9ImEiPiYjeGE7PHBhdGggZmlsbC1ydWxlPSJldmVub2RkIiBmaWxsPSIjZmZmIiBkPSJtMCAwaDMxMy4zMDMxNTV2MTU5Ljg2NDg2NWgtMzEzLjMwMzE1NXoiLz4mI3hhOzwvbWFzaz4mI3hhOzxtYXNrIGZpbGw9IiNmZmYiIGlkPSJiIj4mI3hhOzxwYXRoIGZpbGwtcnVsZT0iZXZlbm9kZCIgZmlsbD0iI2ZmZiIgZD0ibTAgMGgzMTMuMzAzMTU1djE1OS44NjQ4NjVoLTMxMy4zMDMxNTV6Ii8+JiN4YTs8L21hc2s+JiN4YTs8ZyB0cmFuc2Zvcm09InRyYW5zbGF0ZSgtMTEgLTUxKSIgZmlsbC1ydWxlPSJldmVub2RkIiBmaWxsPSJub25lIj4mI3hhOzxwYXRoIGZpbGw9IiMwZjE2ODkiIGQ9Im0xMS42Nzg1NzE0IDE4OWgxOS43ODU4MzU3djI2Ljc4OWgyMy45MDM3di0yNi43ODloMTkuNzg1ODM1OHY3NS4yNWgtMTkuNzg1ODM1OHYtMjguNjk1MzMzaC0yMy45MDM3djI4LjY5NTMzM2gtMTkuNzg1ODM1N3ptODYuMTczODQyOSA3NS4yNXYtNzUuMjVoNDYuODAzMDQyN3YxNi4zNTQzMzNoLTI3LjAxNzIwN3YxMi4yNDA2NjdoMjMuOTAzN3YxNi42NTUzMzNoLTIzLjkwMzd2MTMuODQ2aDI3LjAxNzIwN3YxNi4xNTM2Njd6bTY4LjQ5NzE1NjcgMHYtNzUuMjVoMTkuNzg1ODM2djU1LjM4NGgyNy4xMTc2NDN2MTkuODY2em03Ny41MzYzNzItNzUuMjUgMzAuNzMzMzI4IDI3Ljg5MjY2NyAzMC42MzI4OTMtMjcuODkyNjY3aDguOTM4Nzc5djc1LjI1aC0xOS44ODYyNzJ2LTM4LjYyODMzM2wtMTkuNjg1NCAxNy45NTk2NjYtMTkuNzg1ODM1LTE3Ljg1OTMzM3YzOC41MjhoLTE5Ljg4NjI3MnYtNzUuMjV6Ii8+JiN4YTs8ZyB0cmFuc2Zvcm09Im1hdHJpeCgxIDAgMCAtMSAxMS45NTgxMzYgNDU1KSI+JiN4YTs8ZyBtYXNrPSJ1cmwoI2EpIiBmaWxsPSIjMGYxNjg5Ij4mI3hhOzxwYXRoIHRyYW5zZm9ybT0ibWF0cml4KC44MTkxNTIwNCAuNTczNTc2NDQgLS41NzM1NzY0NCAuODE5MTUyMDQgMTExLjg3MDA5MSAtNTEuNzA2NTU2KSIgZD0ibTIwMy40NjA2NzYgOTUuNjg3NTQyNWM2LjkzNjMxIDAgMTIuNTU5MzAxLTE0LjgwOTIxOTQgMTIuNTU5MzAxLTMzLjA3NzMxNzJzLTUuNjIyOTkxLTMzLjA3NzMxNzItMTIuNTU5MzAxLTMzLjA3NzMxNzJjLTYuOTM2MzExIDAtMTIuNTU5MzAxIDE0LjgwOTIxOTQtMTIuNTU5MzAxIDMzLjA3NzMxNzJzNS42MjI5OSAzMy4wNzczMTcyIDEyLjU1OTMwMSAzMy4wNzczMTcyeiIvPiYjeGE7PHBhdGggdHJhbnNmb3JtPSJtYXRyaXgoLS44MTkxNTIwNCAuNTczNTc2NDQgLjU3MzU3NjQ0IC44MTkxNTIwNCA1OC4wODQ2MTEgNDcuNzA0NzY4KSIgZD0ibTMwLjE0MjMyMjMgOTUuNjg3NTQyNWM2LjkzNjMxMDQgMCAxMi41NTkzMDEtMTQuODA5MjE5NCAxMi41NTkzMDEtMzMuMDc3MzE3MnMtNS42MjI5OTA2LTMzLjA3NzMxNzItMTIuNTU5MzAxLTMzLjA3NzMxNzItMTIuNTU5MzAwOSAxNC44MDkyMTk0LTEyLjU1OTMwMDkgMzMuMDc3MzE3MiA1LjYyMjk5MDUgMzMuMDc3MzE3MiAxMi41NTkzMDA5IDMzLjA3NzMxNzJ6Ii8+JiN4YTs8cGF0aCB0cmFuc2Zvcm09Im1hdHJpeCgtMSAwIDAgMSAyNzIuNjI4NTI0IDUzLjY3MDc2MikiIGQ9Im0xMTYuNzMyODE1IDY2LjI3NTI2NzZjNi45MzYzMTEgMCAxMi41NTkzMDEtMTQuODA5MjE5MyAxMi41NTkzMDEtMzMuMDc3MzE3MiAwLTE4LjI2ODA5NzgtNS42MjI5OS0zMy4wNzczMTcxMy0xMi41NTkzMDEtMzMuMDc3MzE3MTMtNi45MzYzMSAwLTEyLjU1OTMwMSAxNC44MDkyMTkzMy0xMi41NTkzMDEgMzMuMDc3MzE3MTMgMCAxOC4yNjgwOTc5IDUuNjIyOTkxIDMzLjA3NzMxNzIgMTIuNTU5MzAxIDMzLjA3NzMxNzJ6Ii8+JiN4YTs8L2c+JiN4YTs8cGF0aCBzdHJva2Utd2lkdGg9IjIwIiBzdHJva2U9IiMwZjE2ODkiIG1hc2s9InVybCgjYSkiIGQ9Im0yNTEuNDY3MDA2IDE3My4wOTk4NDljLTIwLjIzMDA3Ni0zMy42MDk5NjktNTYuODg5NTY1LTU2LjA2NzkwOC05OC43NTU3NzYtNTYuMDY3OTA4LTQwLjcyMDc5OCAwLTc2LjUxNTg3NjYgMjEuMjQ1OTAxLTk3LjA1ODY5NTkgNTMuMzM0NTg4bTIuMTk4MTEwNyAxMjkuMTY5NTM0YzIwLjg0MDMwMzYgMzAuMjMyNzAxIDU1LjU1NTkwNDIgNTAuMDI2NTkxIDk0Ljg2MDU4NTIgNTAuMDI2NTkxIDM5LjM3NjA5OSAwIDc0LjE0NjQyNC0xOS44NjU4ODcgOTQuOTc0MDQ5LTUwLjE5MTQ5NSIvPiYjeGE7PC9nPiYjeGE7PGcgdHJhbnNmb3JtPSJ0cmFuc2xhdGUoMTEuOTU4MTM2KSI+JiN4YTs8ZyBtYXNrPSJ1cmwoI2IpIiBmaWxsPSIjMGYxNjg5Ij4mI3hhOzxwYXRoIHRyYW5zZm9ybT0ibWF0cml4KC44MTkxNTIwNCAuNTczNTc2NDQgLS41NzM1NzY0NCAuODE5MTUyMDQgMTExLjg3MDA5MSAtNTQuMTY2MDE2KSIgZD0ibTIwMy40NjA2NzYgOTUuNjg3NTQyNWM2LjkzNjMxIDAgMTIuNTU5MzAxLTE0LjgwOTIxOTQgMTIuNTU5MzAxLTMzLjA3NzMxNzJzLTUuNjIyOTkxLTMzLjA3NzMxNzItMTIuNTU5MzAxLTMzLjA3NzMxNzJjLTYuOTM2MzExIDAtMTIuNTU5MzAxIDE0LjgwOTIxOTQtMTIuNTU5MzAxIDMzLjA3NzMxNzJzNS42MjI5OSAzMy4wNzczMTcyIDEyLjU1OTMwMSAzMy4wNzczMTcyeiIvPiYjeGE7PHBhdGggdHJhbnNmb3JtPSJtYXRyaXgoLS44MTkxNTIwNCAuNTczNTc2NDQgLjU3MzU3NjQ0IC44MTkxNTIwNCA1OC4wODQ2MTEgNDUuMjQ1MzA4KSIgZD0ibTMwLjE0MjMyMjMgOTUuNjg3NTQyNWM2LjkzNjMxMDQgMCAxMi41NTkzMDEtMTQuODA5MjE5NCAxMi41NTkzMDEtMzMuMDc3MzE3MnMtNS42MjI5OTA2LTMzLjA3NzMxNzItMTIuNTU5MzAxLTMzLjA3NzMxNzItMTIuNTU5MzAwOSAxNC44MDkyMTk0LTEyLjU1OTMwMDkgMzMuMDc3MzE3MiA1LjYyMjk5MDUgMzMuMDc3MzE3MiAxMi41NTkzMDA5IDMzLjA3NzMxNzJ6Ii8+JiN4YTs8cGF0aCB0cmFuc2Zvcm09Im1hdHJpeCgtMSAwIDAgMSAyNzIuNjI4NTI0IDUxLjIxMTMwMikiIGQ9Im0xMTYuNzMyODE1IDY2LjI3NTI2NzZjNi45MzYzMTEgMCAxMi41NTkzMDEtMTQuODA5MjE5MyAxMi41NTkzMDEtMzMuMDc3MzE3MiAwLTE4LjI2ODA5NzgtNS42MjI5OS0zMy4wNzczMTcxMy0xMi41NTkzMDEtMzMuMDc3MzE3MTMtNi45MzYzMSAwLTEyLjU1OTMwMSAxNC44MDkyMTkzMy0xMi41NTkzMDEgMzMuMDc3MzE3MTMgMCAxOC4yNjgwOTc5IDUuNjIyOTkxIDMzLjA3NzMxNzIgMTIuNTU5MzAxIDMzLjA3NzMxNzJ6Ii8+JiN4YTs8L2c+JiN4YTs8cGF0aCBzdHJva2Utd2lkdGg9IjIwIiBzdHJva2U9IiMwZjE2ODkiIG1hc2s9InVybCgjYikiIGQ9Im0yNTEuNDY3MDA2IDE3MC42NDAzOWMtMjAuMjMwMDc2LTMzLjYwOTk2OS01Ni44ODk1NjUtNTYuMDY3OTA4LTk4Ljc1NTc3Ni01Ni4wNjc5MDgtNDAuNzIwNzk4IDAtNzYuNTE1ODc2NiAyMS4yNDU5LTk3LjA1ODY5NTkgNTMuMzM0NTg3bTIuMTk4MTEwNyAxMjkuMTY5NTM0YzIwLjg0MDMwMzYgMzAuMjMyNzAyIDU1LjU1NTkwNDIgNTAuMDI2NTkxIDk0Ljg2MDU4NTIgNTAuMDI2NTkxIDM5LjM3NjA5OSAwIDc0LjE0NjQyNC0xOS44NjU4ODYgOTQuOTc0MDQ5LTUwLjE5MTQ5NCIvPiYjeGE7PC9nPiYjeGE7PC9nPiYjeGE7PC9zdmc+;fontSize=8;" vertex="1" parent="1">
          <mxGeometry x="1168.51" y="546" width="38.97" height="45" as="geometry" />
        </mxCell>
        <mxCell id="Omu4mrXGBT7mXpVm0lrH-2" value="" style="group" vertex="1" connectable="0" parent="1">
          <mxGeometry x="47" y="367" width="96.82999999999998" height="71" as="geometry" />
        </mxCell>
        <mxCell id="Pz952ifp0xKUWONjBoJJ-10" value="" style="image;aspect=fixed;perimeter=ellipsePerimeter;html=1;align=center;shadow=0;dashed=0;spacingTop=3;image=img/lib/active_directory/internet_cloud.svg;container=0;" parent="Omu4mrXGBT7mXpVm0lrH-2" vertex="1">
          <mxGeometry y="10" width="96.83" height="61" as="geometry" />
        </mxCell>
        <mxCell id="Pz952ifp0xKUWONjBoJJ-9" value="" style="verticalLabelPosition=bottom;html=1;verticalAlign=top;align=center;strokeColor=#A50040;fillColor=#d80073;shape=mxgraph.azure.user;fontColor=#ffffff;container=0;" parent="Omu4mrXGBT7mXpVm0lrH-2" vertex="1">
          <mxGeometry x="19.000000000000014" y="5.5" width="24.7" height="26" as="geometry" />
        </mxCell>
        <mxCell id="Pz952ifp0xKUWONjBoJJ-12" value="" style="verticalLabelPosition=bottom;html=1;verticalAlign=top;align=center;strokeColor=#001DBC;fillColor=#0050ef;shape=mxgraph.azure.user;fontColor=#ffffff;container=0;" parent="Omu4mrXGBT7mXpVm0lrH-2" vertex="1">
          <mxGeometry x="50" width="24.7" height="26" as="geometry" />
        </mxCell>
        <mxCell id="Pz952ifp0xKUWONjBoJJ-13" value="" style="verticalLabelPosition=bottom;html=1;verticalAlign=top;align=center;strokeColor=#2D7600;fillColor=#60a917;shape=mxgraph.azure.user;fontColor=#ffffff;container=0;" parent="Omu4mrXGBT7mXpVm0lrH-2" vertex="1">
          <mxGeometry x="25.30000000000001" y="27.5" width="24.7" height="26" as="geometry" />
        </mxCell>
        <mxCell id="Pz952ifp0xKUWONjBoJJ-17" value="" style="verticalLabelPosition=bottom;html=1;verticalAlign=top;align=center;strokeColor=#6F0000;fillColor=#a20025;shape=mxgraph.azure.user;fontColor=#ffffff;container=0;" parent="Omu4mrXGBT7mXpVm0lrH-2" vertex="1">
          <mxGeometry x="53" y="23" width="24.7" height="26" as="geometry" />
        </mxCell>
        <mxCell id="h2PM3oMP3MXxl9iQ3OsZ-83" value="GitHub" style="rounded=0;whiteSpace=wrap;html=1;verticalAlign=top;align=left;spacingLeft=34;spacingTop=2;" parent="1" vertex="1">
          <mxGeometry x="1314" y="570" width="254" height="124" as="geometry" />
        </mxCell>
        <mxCell id="h2PM3oMP3MXxl9iQ3OsZ-84" value="" style="dashed=0;outlineConnect=0;html=1;align=center;labelPosition=center;verticalLabelPosition=bottom;verticalAlign=top;shape=mxgraph.weblogos.github" parent="1" vertex="1">
          <mxGeometry x="1315" y="571" width="30" height="30" as="geometry" />
        </mxCell>
        <mxCell id="Pz952ifp0xKUWONjBoJJ-1" value="" style="group" parent="1" vertex="1" connectable="0">
          <mxGeometry x="1339" y="650" width="204" height="35" as="geometry" />
        </mxCell>
        <mxCell id="Pz952ifp0xKUWONjBoJJ-2" value="python-simple-web-app" style="rounded=1;whiteSpace=wrap;html=1;arcSize=50;align=left;spacingLeft=40;" parent="Pz952ifp0xKUWONjBoJJ-1" vertex="1">
          <mxGeometry width="204" height="35" as="geometry" />
        </mxCell>
        <mxCell id="Pz952ifp0xKUWONjBoJJ-3" value="" style="dashed=0;outlineConnect=0;html=1;align=center;labelPosition=center;verticalLabelPosition=bottom;verticalAlign=top;shape=mxgraph.weblogos.github" parent="Pz952ifp0xKUWONjBoJJ-1" vertex="1">
          <mxGeometry x="3" y="2" width="31" height="31" as="geometry" />
        </mxCell>
        <mxCell id="h2PM3oMP3MXxl9iQ3OsZ-88" value="" style="group" parent="1" vertex="1" connectable="0">
          <mxGeometry x="1339" y="606" width="204" height="35" as="geometry" />
        </mxCell>
        <mxCell id="h2PM3oMP3MXxl9iQ3OsZ-86" value="terraform-aws-infra-webapp" style="rounded=1;whiteSpace=wrap;html=1;arcSize=50;align=left;spacingLeft=40;" parent="h2PM3oMP3MXxl9iQ3OsZ-88" vertex="1">
          <mxGeometry width="204" height="35" as="geometry" />
        </mxCell>
        <mxCell id="h2PM3oMP3MXxl9iQ3OsZ-87" value="" style="dashed=0;outlineConnect=0;html=1;align=center;labelPosition=center;verticalLabelPosition=bottom;verticalAlign=top;shape=mxgraph.weblogos.github" parent="h2PM3oMP3MXxl9iQ3OsZ-88" vertex="1">
          <mxGeometry x="3" y="2" width="31" height="31" as="geometry" />
        </mxCell>
        <mxCell id="Omu4mrXGBT7mXpVm0lrH-6" style="edgeStyle=orthogonalEdgeStyle;rounded=0;orthogonalLoop=1;jettySize=auto;html=1;exitX=0;exitY=0.5;exitDx=0;exitDy=0;entryX=1;entryY=0.5;entryDx=0;entryDy=0;strokeWidth=7;strokeColor=#4D4D4D;" edge="1" parent="1" source="h2PM3oMP3MXxl9iQ3OsZ-86" target="h2PM3oMP3MXxl9iQ3OsZ-6">
          <mxGeometry relative="1" as="geometry" />
        </mxCell>
        <mxCell id="Omu4mrXGBT7mXpVm0lrH-5" style="edgeStyle=orthogonalEdgeStyle;rounded=0;orthogonalLoop=1;jettySize=auto;html=1;exitX=0;exitY=0.5;exitDx=0;exitDy=0;entryX=0.75;entryY=1;entryDx=0;entryDy=0;dashed=1;" edge="1" parent="1" source="Pz952ifp0xKUWONjBoJJ-2" target="Pz952ifp0xKUWONjBoJJ-5">
          <mxGeometry relative="1" as="geometry">
            <Array as="points">
              <mxPoint x="1192" y="668" />
            </Array>
          </mxGeometry>
        </mxCell>
        <mxCell id="Omu4mrXGBT7mXpVm0lrH-4" style="edgeStyle=orthogonalEdgeStyle;rounded=0;orthogonalLoop=1;jettySize=auto;html=1;exitX=0.5;exitY=0;exitDx=0;exitDy=0;dashed=1;" edge="1" parent="1" source="h2PM3oMP3MXxl9iQ3OsZ-86" target="h2PM3oMP3MXxl9iQ3OsZ-66">
          <mxGeometry relative="1" as="geometry">
            <Array as="points">
              <mxPoint x="1441" y="405" />
            </Array>
          </mxGeometry>
        </mxCell>
      </root>
    </mxGraphModel>
  </diagram>
  <diagram id="Yegxi0N1LA579_u7P5RM" name="tmp">
    <mxGraphModel dx="2074" dy="1196" grid="1" gridSize="10" guides="1" tooltips="1" connect="1" arrows="1" fold="1" page="1" pageScale="1" pageWidth="850" pageHeight="1100" math="0" shadow="0">
      <root>
        <mxCell id="0" />
        <mxCell id="1" parent="0" />
        <mxCell id="_qxm2h256jApF0s2D97A-1" value="" style="rounded=0;whiteSpace=wrap;html=1;fillColor=none;strokeColor=#CC0066;" vertex="1" parent="1">
          <mxGeometry x="50" y="450" width="800" height="239" as="geometry" />
        </mxCell>
        <mxCell id="_qxm2h256jApF0s2D97A-2" style="edgeStyle=orthogonalEdgeStyle;rounded=0;orthogonalLoop=1;jettySize=auto;html=1;exitX=1;exitY=0.5;exitDx=0;exitDy=0;exitPerimeter=0;entryX=0;entryY=0.5;entryDx=0;entryDy=0;strokeWidth=2;strokeColor=#4D4D4D;" edge="1" parent="1" source="_qxm2h256jApF0s2D97A-3" target="_qxm2h256jApF0s2D97A-5">
          <mxGeometry relative="1" as="geometry" />
        </mxCell>
        <mxCell id="_qxm2h256jApF0s2D97A-3" value="API GW" style="sketch=0;points=[[0,0,0],[0.25,0,0],[0.5,0,0],[0.75,0,0],[1,0,0],[0,1,0],[0.25,1,0],[0.5,1,0],[0.75,1,0],[1,1,0],[0,0.25,0],[0,0.5,0],[0,0.75,0],[1,0.25,0],[1,0.5,0],[1,0.75,0]];outlineConnect=0;fontColor=#232F3E;fillColor=#E7157B;strokeColor=#ffffff;dashed=0;verticalLabelPosition=bottom;verticalAlign=top;align=center;html=1;fontSize=10;fontStyle=0;aspect=fixed;shape=mxgraph.aws4.resourceIcon;resIcon=mxgraph.aws4.api_gateway;spacingTop=-4;" vertex="1" parent="1">
          <mxGeometry x="79" y="536" width="51" height="51" as="geometry" />
        </mxCell>
        <mxCell id="_qxm2h256jApF0s2D97A-4" value="" style="group" vertex="1" connectable="0" parent="1">
          <mxGeometry x="210" y="474" width="120" height="175" as="geometry" />
        </mxCell>
        <mxCell id="_qxm2h256jApF0s2D97A-5" value="" style="rounded=1;whiteSpace=wrap;html=1;fillColor=#ffe6cc;strokeColor=#d79b00;" vertex="1" parent="_qxm2h256jApF0s2D97A-4">
          <mxGeometry width="120" height="175" as="geometry" />
        </mxCell>
        <mxCell id="_qxm2h256jApF0s2D97A-6" value="" style="sketch=0;outlineConnect=0;fontColor=#232F3E;gradientColor=none;fillColor=#ED7100;strokeColor=none;dashed=0;verticalLabelPosition=bottom;verticalAlign=top;align=center;html=1;fontSize=12;fontStyle=0;aspect=fixed;pointerEvents=1;shape=mxgraph.aws4.lambda_function;" vertex="1" parent="_qxm2h256jApF0s2D97A-4">
          <mxGeometry x="19.5" y="14" width="38" height="38" as="geometry" />
        </mxCell>
        <mxCell id="_qxm2h256jApF0s2D97A-7" value="" style="sketch=0;outlineConnect=0;fontColor=#232F3E;gradientColor=none;fillColor=#ED7100;strokeColor=none;dashed=0;verticalLabelPosition=bottom;verticalAlign=top;align=center;html=1;fontSize=12;fontStyle=0;aspect=fixed;pointerEvents=1;shape=mxgraph.aws4.lambda_function;" vertex="1" parent="_qxm2h256jApF0s2D97A-4">
          <mxGeometry x="60.5" y="52" width="38" height="38" as="geometry" />
        </mxCell>
        <mxCell id="_qxm2h256jApF0s2D97A-8" value="" style="sketch=0;outlineConnect=0;fontColor=#232F3E;gradientColor=none;fillColor=#ED7100;strokeColor=none;dashed=0;verticalLabelPosition=bottom;verticalAlign=top;align=center;html=1;fontSize=12;fontStyle=0;aspect=fixed;pointerEvents=1;shape=mxgraph.aws4.lambda_function;" vertex="1" parent="_qxm2h256jApF0s2D97A-4">
          <mxGeometry x="22.5" y="90" width="38" height="38" as="geometry" />
        </mxCell>
        <mxCell id="_qxm2h256jApF0s2D97A-9" value="" style="sketch=0;outlineConnect=0;fontColor=#232F3E;gradientColor=none;fillColor=#ED7100;strokeColor=none;dashed=0;verticalLabelPosition=bottom;verticalAlign=top;align=center;html=1;fontSize=12;fontStyle=0;aspect=fixed;pointerEvents=1;shape=mxgraph.aws4.lambda_function;" vertex="1" parent="_qxm2h256jApF0s2D97A-4">
          <mxGeometry x="60.5" y="128" width="38" height="38" as="geometry" />
        </mxCell>
        <mxCell id="_qxm2h256jApF0s2D97A-10" value="SNS" style="sketch=0;points=[[0,0,0],[0.25,0,0],[0.5,0,0],[0.75,0,0],[1,0,0],[0,1,0],[0.25,1,0],[0.5,1,0],[0.75,1,0],[1,1,0],[0,0.25,0],[0,0.5,0],[0,0.75,0],[1,0.25,0],[1,0.5,0],[1,0.75,0]];outlineConnect=0;fontColor=#232F3E;fillColor=#E7157B;strokeColor=#ffffff;dashed=0;verticalLabelPosition=bottom;verticalAlign=top;align=center;html=1;fontSize=10;fontStyle=0;aspect=fixed;shape=mxgraph.aws4.resourceIcon;resIcon=mxgraph.aws4.sns;spacingTop=-4;" vertex="1" parent="1">
          <mxGeometry x="398" y="536.5" width="50.5" height="50.5" as="geometry" />
        </mxCell>
        <mxCell id="_qxm2h256jApF0s2D97A-11" style="edgeStyle=orthogonalEdgeStyle;rounded=0;orthogonalLoop=1;jettySize=auto;html=1;exitX=1;exitY=0.5;exitDx=0;exitDy=0;exitPerimeter=0;entryX=0;entryY=0.5;entryDx=0;entryDy=0;strokeWidth=2;strokeColor=#4D4D4D;" edge="1" parent="1" source="_qxm2h256jApF0s2D97A-12" target="_qxm2h256jApF0s2D97A-14">
          <mxGeometry relative="1" as="geometry" />
        </mxCell>
        <mxCell id="_qxm2h256jApF0s2D97A-12" value="SQS" style="sketch=0;points=[[0,0,0],[0.25,0,0],[0.5,0,0],[0.75,0,0],[1,0,0],[0,1,0],[0.25,1,0],[0.5,1,0],[0.75,1,0],[1,1,0],[0,0.25,0],[0,0.5,0],[0,0.75,0],[1,0.25,0],[1,0.5,0],[1,0.75,0]];outlineConnect=0;fontColor=#232F3E;fillColor=#E7157B;strokeColor=#ffffff;dashed=0;verticalLabelPosition=bottom;verticalAlign=top;align=center;html=1;fontSize=10;fontStyle=0;aspect=fixed;shape=mxgraph.aws4.resourceIcon;resIcon=mxgraph.aws4.sqs;spacingTop=-4;" vertex="1" parent="1">
          <mxGeometry x="475" y="536.5" width="51" height="51" as="geometry" />
        </mxCell>
        <mxCell id="_qxm2h256jApF0s2D97A-13" value="" style="group" vertex="1" connectable="0" parent="1">
          <mxGeometry x="565" y="475" width="120" height="175" as="geometry" />
        </mxCell>
        <mxCell id="_qxm2h256jApF0s2D97A-14" value="" style="rounded=1;whiteSpace=wrap;html=1;fillColor=#ffe6cc;strokeColor=#d79b00;" vertex="1" parent="_qxm2h256jApF0s2D97A-13">
          <mxGeometry width="120" height="175" as="geometry" />
        </mxCell>
        <mxCell id="_qxm2h256jApF0s2D97A-15" value="" style="sketch=0;outlineConnect=0;fontColor=#232F3E;gradientColor=none;fillColor=#ED7100;strokeColor=none;dashed=0;verticalLabelPosition=bottom;verticalAlign=top;align=center;html=1;fontSize=12;fontStyle=0;aspect=fixed;pointerEvents=1;shape=mxgraph.aws4.lambda_function;" vertex="1" parent="_qxm2h256jApF0s2D97A-13">
          <mxGeometry x="19.5" y="14" width="38" height="38" as="geometry" />
        </mxCell>
        <mxCell id="_qxm2h256jApF0s2D97A-16" value="" style="sketch=0;outlineConnect=0;fontColor=#232F3E;gradientColor=none;fillColor=#ED7100;strokeColor=none;dashed=0;verticalLabelPosition=bottom;verticalAlign=top;align=center;html=1;fontSize=12;fontStyle=0;aspect=fixed;pointerEvents=1;shape=mxgraph.aws4.lambda_function;" vertex="1" parent="_qxm2h256jApF0s2D97A-13">
          <mxGeometry x="60.5" y="52" width="38" height="38" as="geometry" />
        </mxCell>
        <mxCell id="_qxm2h256jApF0s2D97A-17" value="" style="sketch=0;outlineConnect=0;fontColor=#232F3E;gradientColor=none;fillColor=#ED7100;strokeColor=none;dashed=0;verticalLabelPosition=bottom;verticalAlign=top;align=center;html=1;fontSize=12;fontStyle=0;aspect=fixed;pointerEvents=1;shape=mxgraph.aws4.lambda_function;" vertex="1" parent="_qxm2h256jApF0s2D97A-13">
          <mxGeometry x="22.5" y="90" width="38" height="38" as="geometry" />
        </mxCell>
        <mxCell id="_qxm2h256jApF0s2D97A-18" value="" style="sketch=0;outlineConnect=0;fontColor=#232F3E;gradientColor=none;fillColor=#ED7100;strokeColor=none;dashed=0;verticalLabelPosition=bottom;verticalAlign=top;align=center;html=1;fontSize=12;fontStyle=0;aspect=fixed;pointerEvents=1;shape=mxgraph.aws4.lambda_function;" vertex="1" parent="_qxm2h256jApF0s2D97A-13">
          <mxGeometry x="60.5" y="128" width="38" height="38" as="geometry" />
        </mxCell>
        <mxCell id="_qxm2h256jApF0s2D97A-19" value="DynamoDB" style="outlineConnect=0;dashed=0;verticalLabelPosition=bottom;verticalAlign=top;align=center;html=1;shape=mxgraph.aws3.dynamo_db;fillColor=#2E73B8;gradientColor=none;spacingTop=-6;" vertex="1" parent="1">
          <mxGeometry x="763" y="531.5" width="54.22" height="61" as="geometry" />
        </mxCell>
        <mxCell id="_qxm2h256jApF0s2D97A-20" style="edgeStyle=orthogonalEdgeStyle;rounded=0;orthogonalLoop=1;jettySize=auto;html=1;exitX=1;exitY=0.5;exitDx=0;exitDy=0;entryX=0;entryY=0.5;entryDx=0;entryDy=0;entryPerimeter=0;strokeWidth=2;strokeColor=#4D4D4D;" edge="1" parent="1" source="_qxm2h256jApF0s2D97A-5" target="_qxm2h256jApF0s2D97A-10">
          <mxGeometry relative="1" as="geometry" />
        </mxCell>
        <mxCell id="_qxm2h256jApF0s2D97A-21" value="POST" style="edgeLabel;html=1;align=center;verticalAlign=middle;resizable=0;points=[];" vertex="1" connectable="0" parent="_qxm2h256jApF0s2D97A-20">
          <mxGeometry x="-0.1191" relative="1" as="geometry">
            <mxPoint y="1" as="offset" />
          </mxGeometry>
        </mxCell>
        <mxCell id="_qxm2h256jApF0s2D97A-22" style="edgeStyle=orthogonalEdgeStyle;rounded=0;orthogonalLoop=1;jettySize=auto;html=1;exitX=1;exitY=0.75;exitDx=0;exitDy=0;entryX=0;entryY=0.78;entryDx=0;entryDy=0;entryPerimeter=0;strokeWidth=2;strokeColor=#4D4D4D;" edge="1" parent="1" source="_qxm2h256jApF0s2D97A-5" target="_qxm2h256jApF0s2D97A-19">
          <mxGeometry relative="1" as="geometry">
            <Array as="points">
              <mxPoint x="370" y="605" />
              <mxPoint x="370" y="672" />
              <mxPoint x="721" y="672" />
              <mxPoint x="721" y="579" />
            </Array>
          </mxGeometry>
        </mxCell>
        <mxCell id="_qxm2h256jApF0s2D97A-23" value="GET" style="edgeLabel;html=1;align=center;verticalAlign=middle;resizable=0;points=[];" vertex="1" connectable="0" parent="_qxm2h256jApF0s2D97A-22">
          <mxGeometry x="-0.9426" y="1" relative="1" as="geometry">
            <mxPoint as="offset" />
          </mxGeometry>
        </mxCell>
        <mxCell id="_qxm2h256jApF0s2D97A-24" style="edgeStyle=orthogonalEdgeStyle;rounded=0;orthogonalLoop=1;jettySize=auto;html=1;exitX=1;exitY=0.5;exitDx=0;exitDy=0;exitPerimeter=0;entryX=0;entryY=0.5;entryDx=0;entryDy=0;entryPerimeter=0;strokeWidth=2;strokeColor=#4D4D4D;" edge="1" parent="1" source="_qxm2h256jApF0s2D97A-10" target="_qxm2h256jApF0s2D97A-12">
          <mxGeometry relative="1" as="geometry" />
        </mxCell>
        <mxCell id="_qxm2h256jApF0s2D97A-25" style="edgeStyle=orthogonalEdgeStyle;rounded=0;orthogonalLoop=1;jettySize=auto;html=1;exitX=1;exitY=0.5;exitDx=0;exitDy=0;entryX=0;entryY=0.5;entryDx=0;entryDy=0;entryPerimeter=0;strokeWidth=2;strokeColor=#4D4D4D;" edge="1" parent="1" source="_qxm2h256jApF0s2D97A-14" target="_qxm2h256jApF0s2D97A-19">
          <mxGeometry relative="1" as="geometry" />
        </mxCell>
      </root>
    </mxGraphModel>
  </diagram>
</mxfile>
